<svg id="Layer_1" data-name="Layer 1" xmlns="http://www.w3.org/2000/svg" viewBox="0 0 180.2 131.19"><title>logo</title><circle cx="99.01" cy="70.15" r="61.04" style="fill:#fbb03b"/><circle cx="70.8" cy="37.51" r="8.66" style="fill:#fff"/><circle cx="62.34" cy="63.7" r="13.1" style="fill:#fff"/><g id="A1WZ19.tif"><path d="M55.35,143.17A63.71,63.71,0,0,1,44.59,67.28c12.64-22.49,37.67-35.61,62.28-32.4C134.75,38.52,155.4,57,162.13,84.39a2,2,0,0,0,.6-.27A103.58,103.58,0,0,0,178.39,66.9a22.13,22.13,0,0,0,4.17-9c.52-3.24-.57-5.89-3.64-7a22.07,22.07,0,0,0-8.36-1.54c-5.82.35-11.61,1.3-17.41,2.11-2.55.36-4.43-.6-5-2.87s.75-4.06,3.19-4.57c9-1.87,18-3.09,27.19-1a20.22,20.22,0,0,1,2.05.62c7.9,2.78,11,8.53,8.81,16.64-1.75,6.57-5.48,12-9.71,17.2-8.35,10.15-18.36,18.51-28.91,26.21a314.14,314.14,0,0,1-86,44.8c-10.1,3.38-20.43,5.93-31.16,6.38a41.29,41.29,0,0,1-13.33-1.34c-8.69-2.51-12.15-8.81-9.67-17.52a42.37,42.37,0,0,1,8-14.7c2.52-3.18,5.28-6.18,8-9.16,1.76-1.9,4.11-2,5.72-.37s1.41,3.82-.27,5.76c-3.75,4.33-7.62,8.58-11,13.17a25.89,25.89,0,0,0-3.65,7.9c-1,3.37.53,6.18,3.81,7.54a19.1,19.1,0,0,0,4.83,1.26C32.53,148.27,49.08,145.81,55.35,143.17ZM44.22,102.45c.2,12.35,6.37,26.09,18.58,37.12a2.56,2.56,0,0,0,3,.58,308.84,308.84,0,0,0,87.92-48.26,3.2,3.2,0,0,0,1.36-3.49c-4.64-28.07-30.91-48.51-59.35-46.14C66.05,44.74,44.1,68.63,44.22,102.45Z" transform="translate(-9.9 -34.4)"/><path d="M100.31,162.79a63.34,63.34,0,0,1-27.46-6,3.77,3.77,0,0,1-2.14-5c.89-2.12,3.05-2.95,5.38-1.88,8.79,4,18,6.17,27.67,5.49,21.37-1.49,37.22-11.76,47.41-30.6A53.67,53.67,0,0,0,157,106.26c.06-.42.15-.83.24-1.23a3.72,3.72,0,0,1,4.43-3.16,3.8,3.8,0,0,1,3.1,4.5A62.64,62.64,0,0,1,152.84,136C140.06,152.93,121.54,162.28,100.31,162.79Z" transform="translate(-9.9 -34.4)"/><path d="M68.11,77.42c7,0,13.66,6.5,13.71,13.48s-6.59,13.59-13.59,13.61S54.64,98,54.63,90.93,61.19,77.46,68.11,77.42Zm6,13.54c0-3.79-2.06-5.89-5.83-5.91s-5.92,2.1-6,5.83,2.12,6,5.79,6C72,96.92,74.08,94.84,74.09,91Z" transform="translate(-9.9 -34.4)"/><path d="M91.29,68.16c-.06,4.22-4.3,8.37-8.54,8.34S74.31,72.12,74.37,68s4.45-8.44,8.58-8.39S91.35,64,91.29,68.16Z" transform="translate(-9.9 -34.4)"/></g></svg>